# xmcd CD database file
# Copyright (C) 1993-1998 Ti Kan
#
# Track frame offsets:
#  150
#  14387
#  26537
#  39737
#  56537
#  69662
#  82112
#  93662
#  105737
#  119612
#  134012
#  146612
#  159962
#  171737
#  181562
#  194237
#  208262
#  222962
#  238337
#  251837
#  262787
#  274862
#  293987
#  307562
#  329462
#
# Disc length: 4552 seconds
#
# Revision: 1
# Processed by: cddbd v1.4b41PL1 Copyright (c) Steve Scherf et al.
# Submitted via: CDWizzard Release:4.35
#
DISCID=8811c619
DTITLE=Misc - The History Of The Blues - The Classic Blues
DYEAR=1900
DGENRE=
TTITLE0=Rolling Stone
TTITLE1=Mother Earth
TTITLE2=Moanin' At Midnight
TTITLE3=The Journay
TTITLE4=Mama, He Treats Your Daughter Mean
TTITLE5=Juke
TTITLE6=In The Night
TTITLE7=Honey Hush
TTITLE8=Soul On Fire
TTITLE9=Reconsider Baby
TTITLE10=Hoochie Coochie Man
TTITLE11=I'm A Man
TTITLE12=Don't Start Me Talkin'
TTITLE13=29 Ways
TTITLE14=Wallking By Myself
TTITLE15=Before You Accuse Me
TTITLE16=Merry Christmas Baby
TTITLE17=The Right Time
TTITLE18=Shoping For Clothes
TTITLE19=Madison Blues
TTITLE20=I Pity The Fool
TTITLE21=Baby, What You Want Me To Do
TTITLE22=Wang Dang Doodle
TTITLE23=Night Life
TTITLE24=Boom Boom Boom
EXTD=Lilo
EXTT0=Muddy Waters
EXTT1=Mwmphis Slim
EXTT2=Holwin' Wolf
EXTT3=John Lee Hooker
EXTT4=Ruth Brown
EXTT5=Little Walter and His Night Cats
EXTT6=Professor Longhair
EXTT7=Big Joe Turner
EXTT8=Laverne Baker
EXTT9=Lowell Fulson 
EXTT10=Muddy Waters
EXTT11=Bo Diddley
EXTT12=Sonny Boy Williamson
EXTT13=Willie Dixon
EXTT14=Jimmy Rogers
EXTT15=Bo Diddley
EXTT16=Chuck Berry
EXTT17=Ray Charles
EXTT18=Coasters
EXTT19=Elmore James
EXTT20=Bobby Bland
EXTT21=Etta James
EXTT22=Koko Taylor
EXTT23=B.B. King
EXTT24=John Lee Hooker
PLAYORDER=
